<?xml version="1.0" encoding="UTF-8" standalone="no"?>
<svg width="20px" height="18px" viewBox="0 0 20 18" version="1.1" xmlns="http://www.w3.org/2000/svg" xmlns:xlink="http://www.w3.org/1999/xlink" xmlns:sketch="http://www.bohemiancoding.com/sketch/ns">
    <!-- Generator: Sketch 3.4.1 (15681) - http://www.bohemiancoding.com/sketch -->
    <title>Shape + Group</title>
    <desc>Created with Sketch.</desc>
    <defs></defs>
    <g id="Page-1" stroke="none" stroke-width="1" fill="none" fill-rule="evenodd" sketch:type="MSPage">
        <g id="Shape-+-Group" sketch:type="MSLayerGroup">
            <path d="M18.6666667,18 L1.33333333,18 C0.666666667,18 0,17.0035714 0,16.0714286 L0,1.92857143 C0,0.996428571 0.666666667,0 1.33333333,0 L18.6666667,0 C19.3333333,0 20,0.996428571 20,1.92857143 L20,16.0714286 C20,17.0357143 19.3111111,18 18.6666667,18 L18.6666667,18 L18.6666667,18 Z" id="Shape" fill="#CA2127" sketch:type="MSShapeGroup"></path>
            <g id="Group" transform="translate(3.000000, 6.000000)" fill="#FFFFFF" sketch:type="MSShapeGroup">
                <path d="M5.91208791,2.43956044 L4.17582418,5.95604396 L3.2967033,5.95604396 L1.56043956,2.43956044 L1.56043956,6.50549451 L0.10989011,6.50549451 L0.10989011,0.043956044 L2.06593407,0.043956044 L3.73626374,3.58241758 L5.40659341,0.043956044 L7.34065934,0.043956044 L7.34065934,6.50549451 L5.89010989,6.50549451 L5.89010989,2.43956044 L5.91208791,2.43956044 L5.91208791,2.43956044 Z" id="Shape"></path>
                <path d="M13.3186813,0.901098901 C13.9340659,1.47252747 14.2417582,2.24175824 14.2417582,3.25274725 C14.2417582,4.26373626 13.9340659,5.05494505 13.3406593,5.62637363 C12.7472527,6.21978022 11.8241758,6.50549451 10.5934066,6.50549451 L8.3956044,6.50549451 L8.3956044,0.043956044 L10.6813187,0.043956044 C11.8021978,0.0659340659 12.7032967,0.32967033 13.3186813,0.901098901 L13.3186813,0.901098901 L13.3186813,0.901098901 Z M12.2637363,4.74725275 C12.6153846,4.41758242 12.7912088,3.93406593 12.7912088,3.2967033 C12.7912088,2.65934066 12.6153846,2.17582418 12.2637363,1.82417582 C11.9120879,1.47252747 11.3626374,1.31868132 10.6373626,1.31868132 L9.82417582,1.31868132 L9.82417582,5.25274725 L10.7472527,5.25274725 C11.3846154,5.23076923 11.8901099,5.07692308 12.2637363,4.74725275 L12.2637363,4.74725275 L12.2637363,4.74725275 Z" id="Shape"></path>
            </g>
        </g>
    </g>
</svg>